<?xml version="1.0" encoding="utf-8" standalone="no"?>
<!DOCTYPE svg PUBLIC "-//W3C//DTD SVG 1.1//EN"
  "http://www.w3.org/Graphics/SVG/1.1/DTD/svg11.dtd">
<!-- Created with matplotlib (https://matplotlib.org/) -->
<svg height="650.2pt" version="1.1" viewBox="0 0 668.825 650.2" width="668.825pt" xmlns="http://www.w3.org/2000/svg" xmlns:xlink="http://www.w3.org/1999/xlink">
 <defs>
  <style type="text/css">
*{stroke-linecap:butt;stroke-linejoin:round;}
  </style>
 </defs>
 <g id="figure_1">
  <g id="patch_1">
   <path d="M 0 650.2 
L 668.825 650.2 
L 668.825 0 
L 0 0 
z
" style="fill:#ffffff;"/>
  </g>
  <g id="axes_1">
   <g id="patch_2">
    <path d="M 56.825 612 
L 661.625 612 
L 661.625 7.2 
L 56.825 7.2 
z
" style="fill:#ffffff;"/>
   </g>
   <g id="PathCollection_1">
    <defs>
     <path d="M 0 5 
C 1.326016 5 2.597899 4.473168 3.535534 3.535534 
C 4.473168 2.597899 5 1.326016 5 0 
C 5 -1.326016 4.473168 -2.597899 3.535534 -3.535534 
C 2.597899 -4.473168 1.326016 -5 0 -5 
C -1.326016 -5 -2.597899 -4.473168 -3.535534 -3.535534 
C -4.473168 -2.597899 -5 -1.326016 -5 0 
C -5 1.326016 -4.473168 2.597899 -3.535534 3.535534 
C -2.597899 4.473168 -1.326016 5 0 5 
z
" id="C0_0_3a4237a9c6"/>
    </defs>
    <g clip-path="url(#p617ed08029)">
     <use style="fill:#1f77b4;" x="573.379453" xlink:href="#C0_0_3a4237a9c6" y="478.079218"/>
    </g>
    <g clip-path="url(#p617ed08029)">
     <use style="fill:#1f77b4;" x="611.090922" xlink:href="#C0_0_3a4237a9c6" y="525.756442"/>
    </g>
    <g clip-path="url(#p617ed08029)">
     <use style="fill:#1f77b4;" x="518.559274" xlink:href="#C0_0_3a4237a9c6" y="431.913155"/>
    </g>
    <g clip-path="url(#p617ed08029)">
     <use style="fill:#1f77b4;" x="405.884817" xlink:href="#C0_0_3a4237a9c6" y="293.907451"/>
    </g>
    <g clip-path="url(#p617ed08029)">
     <use style="fill:#1f77b4;" x="441.397268" xlink:href="#C0_0_3a4237a9c6" y="305.029784"/>
    </g>
    <g clip-path="url(#p617ed08029)">
     <use style="fill:#1f77b4;" x="523.119311" xlink:href="#C0_0_3a4237a9c6" y="439.694806"/>
    </g>
    <g clip-path="url(#p617ed08029)">
     <use style="fill:#1f77b4;" x="333.354017" xlink:href="#C0_0_3a4237a9c6" y="311.498768"/>
    </g>
    <g clip-path="url(#p617ed08029)">
     <use style="fill:#1f77b4;" x="440.248011" xlink:href="#C0_0_3a4237a9c6" y="285.655976"/>
    </g>
    <g clip-path="url(#p617ed08029)">
     <use style="fill:#1f77b4;" x="441.852984" xlink:href="#C0_0_3a4237a9c6" y="266.72638"/>
    </g>
    <g clip-path="url(#p617ed08029)">
     <use style="fill:#1f77b4;" x="466.766967" xlink:href="#C0_0_3a4237a9c6" y="298.454372"/>
    </g>
    <g clip-path="url(#p617ed08029)">
     <use style="fill:#1f77b4;" x="380.827864" xlink:href="#C0_0_3a4237a9c6" y="300.986181"/>
    </g>
   </g>
   <g id="PathCollection_2">
    <defs>
     <path d="M 0 3.535534 
C 0.937635 3.535534 1.836992 3.163008 2.5 2.5 
C 3.163008 1.836992 3.535534 0.937635 3.535534 0 
C 3.535534 -0.937635 3.163008 -1.836992 2.5 -2.5 
C 1.836992 -3.163008 0.937635 -3.535534 0 -3.535534 
C -0.937635 -3.535534 -1.836992 -3.163008 -2.5 -2.5 
C -3.163008 -1.836992 -3.535534 -0.937635 -3.535534 0 
C -3.535534 0.937635 -3.163008 1.836992 -2.5 2.5 
C -1.836992 3.163008 -0.937635 3.535534 0 3.535534 
z
" id="C1_0_548bf911ef"/>
    </defs>
    <g clip-path="url(#p617ed08029)">
     <use style="fill:#bcbd22;" x="363.294475" xlink:href="#C1_0_548bf911ef" y="248.225692"/>
    </g>
    <g clip-path="url(#p617ed08029)">
     <use style="fill:#bcbd22;" x="224.242514" xlink:href="#C1_0_548bf911ef" y="331.425783"/>
    </g>
    <g clip-path="url(#p617ed08029)">
     <use style="fill:#bcbd22;" x="347.769995" xlink:href="#C1_0_548bf911ef" y="341.402094"/>
    </g>
    <g clip-path="url(#p617ed08029)">
     <use style="fill:#bcbd22;" x="332.141497" xlink:href="#C1_0_548bf911ef" y="333.59208"/>
    </g>
    <g clip-path="url(#p617ed08029)">
     <use style="fill:#bcbd22;" x="304.484089" xlink:href="#C1_0_548bf911ef" y="336.110646"/>
    </g>
    <g clip-path="url(#p617ed08029)">
     <use style="fill:#bcbd22;" x="342.218892" xlink:href="#C1_0_548bf911ef" y="334.668663"/>
    </g>
    <g clip-path="url(#p617ed08029)">
     <use style="fill:#bcbd22;" x="246.148272" xlink:href="#C1_0_548bf911ef" y="322.871718"/>
    </g>
    <g clip-path="url(#p617ed08029)">
     <use style="fill:#bcbd22;" x="193.184041" xlink:href="#C1_0_548bf911ef" y="319.146595"/>
    </g>
    <g clip-path="url(#p617ed08029)">
     <use style="fill:#bcbd22;" x="370.548243" xlink:href="#C1_0_548bf911ef" y="301.519705"/>
    </g>
    <g clip-path="url(#p617ed08029)">
     <use style="fill:#bcbd22;" x="357.785084" xlink:href="#C1_0_548bf911ef" y="282.672697"/>
    </g>
    <g clip-path="url(#p617ed08029)">
     <use style="fill:#bcbd22;" x="328.762329" xlink:href="#C1_0_548bf911ef" y="339.392516"/>
    </g>
    <g clip-path="url(#p617ed08029)">
     <use style="fill:#bcbd22;" x="329.19247" xlink:href="#C1_0_548bf911ef" y="262.151677"/>
    </g>
    <g clip-path="url(#p617ed08029)">
     <use style="fill:#bcbd22;" x="361.29829" xlink:href="#C1_0_548bf911ef" y="526.859801"/>
    </g>
    <g clip-path="url(#p617ed08029)">
     <use style="fill:#bcbd22;" x="383.476112" xlink:href="#C1_0_548bf911ef" y="255.870013"/>
    </g>
    <g clip-path="url(#p617ed08029)">
     <use style="fill:#bcbd22;" x="353.218287" xlink:href="#C1_0_548bf911ef" y="255.746455"/>
    </g>
    <g clip-path="url(#p617ed08029)">
     <use style="fill:#bcbd22;" x="353.852631" xlink:href="#C1_0_548bf911ef" y="305.180174"/>
    </g>
    <g clip-path="url(#p617ed08029)">
     <use style="fill:#bcbd22;" x="448.766302" xlink:href="#C1_0_548bf911ef" y="358.426295"/>
    </g>
    <g clip-path="url(#p617ed08029)">
     <use style="fill:#bcbd22;" x="384.146205" xlink:href="#C1_0_548bf911ef" y="287.160506"/>
    </g>
    <g clip-path="url(#p617ed08029)">
     <use style="fill:#bcbd22;" x="384.137869" xlink:href="#C1_0_548bf911ef" y="337.818726"/>
    </g>
    <g clip-path="url(#p617ed08029)">
     <use style="fill:#bcbd22;" x="348.697676" xlink:href="#C1_0_548bf911ef" y="284.814262"/>
    </g>
    <g clip-path="url(#p617ed08029)">
     <use style="fill:#bcbd22;" x="448.748978" xlink:href="#C1_0_548bf911ef" y="46.74548"/>
    </g>
    <g clip-path="url(#p617ed08029)">
     <use style="fill:#bcbd22;" x="351.975105" xlink:href="#C1_0_548bf911ef" y="351.124441"/>
    </g>
    <g clip-path="url(#p617ed08029)">
     <use style="fill:#bcbd22;" x="498.182813" xlink:href="#C1_0_548bf911ef" y="571.394317"/>
    </g>
    <g clip-path="url(#p617ed08029)">
     <use style="fill:#bcbd22;" x="405.995764" xlink:href="#C1_0_548bf911ef" y="317.002364"/>
    </g>
    <g clip-path="url(#p617ed08029)">
     <use style="fill:#bcbd22;" x="392.837757" xlink:href="#C1_0_548bf911ef" y="333.893064"/>
    </g>
    <g clip-path="url(#p617ed08029)">
     <use style="fill:#bcbd22;" x="388.568869" xlink:href="#C1_0_548bf911ef" y="255.605516"/>
    </g>
    <g clip-path="url(#p617ed08029)">
     <use style="fill:#bcbd22;" x="341.022074" xlink:href="#C1_0_548bf911ef" y="335.875949"/>
    </g>
    <g clip-path="url(#p617ed08029)">
     <use style="fill:#bcbd22;" x="378.221128" xlink:href="#C1_0_548bf911ef" y="302.501978"/>
    </g>
    <g clip-path="url(#p617ed08029)">
     <use style="fill:#bcbd22;" x="351.135954" xlink:href="#C1_0_548bf911ef" y="296.490559"/>
    </g>
    <g clip-path="url(#p617ed08029)">
     <use style="fill:#bcbd22;" x="337.458802" xlink:href="#C1_0_548bf911ef" y="334.626736"/>
    </g>
    <g clip-path="url(#p617ed08029)">
     <use style="fill:#bcbd22;" x="338.967125" xlink:href="#C1_0_548bf911ef" y="296.711868"/>
    </g>
    <g clip-path="url(#p617ed08029)">
     <use style="fill:#bcbd22;" x="509.624802" xlink:href="#C1_0_548bf911ef" y="371.550219"/>
    </g>
    <g clip-path="url(#p617ed08029)">
     <use style="fill:#bcbd22;" x="324.510588" xlink:href="#C1_0_548bf911ef" y="309.292298"/>
    </g>
    <g clip-path="url(#p617ed08029)">
     <use style="fill:#bcbd22;" x="365.622415" xlink:href="#C1_0_548bf911ef" y="350.36054"/>
    </g>
    <g clip-path="url(#p617ed08029)">
     <use style="fill:#bcbd22;" x="385.990681" xlink:href="#C1_0_548bf911ef" y="388.805245"/>
    </g>
    <g clip-path="url(#p617ed08029)">
     <use style="fill:#bcbd22;" x="325.91816" xlink:href="#C1_0_548bf911ef" y="301.140951"/>
    </g>
    <g clip-path="url(#p617ed08029)">
     <use style="fill:#bcbd22;" x="373.102326" xlink:href="#C1_0_548bf911ef" y="342.423754"/>
    </g>
    <g clip-path="url(#p617ed08029)">
     <use style="fill:#bcbd22;" x="385.119872" xlink:href="#C1_0_548bf911ef" y="312.76701"/>
    </g>
    <g clip-path="url(#p617ed08029)">
     <use style="fill:#bcbd22;" x="374.691626" xlink:href="#C1_0_548bf911ef" y="353.999837"/>
    </g>
    <g clip-path="url(#p617ed08029)">
     <use style="fill:#bcbd22;" x="406.88407" xlink:href="#C1_0_548bf911ef" y="324.13175"/>
    </g>
    <g clip-path="url(#p617ed08029)">
     <use style="fill:#bcbd22;" x="313.430778" xlink:href="#C1_0_548bf911ef" y="277.813401"/>
    </g>
    <g clip-path="url(#p617ed08029)">
     <use style="fill:#bcbd22;" x="421.141183" xlink:href="#C1_0_548bf911ef" y="311.333041"/>
    </g>
    <g clip-path="url(#p617ed08029)">
     <use style="fill:#bcbd22;" x="520.227575" xlink:href="#C1_0_548bf911ef" y="315.559131"/>
    </g>
    <g clip-path="url(#p617ed08029)">
     <use style="fill:#bcbd22;" x="467.905895" xlink:href="#C1_0_548bf911ef" y="296.281064"/>
    </g>
    <g clip-path="url(#p617ed08029)">
     <use style="fill:#bcbd22;" x="519.08129" xlink:href="#C1_0_548bf911ef" y="362.900394"/>
    </g>
    <g clip-path="url(#p617ed08029)">
     <use style="fill:#bcbd22;" x="147.720563" xlink:href="#C1_0_548bf911ef" y="272.388364"/>
    </g>
    <g clip-path="url(#p617ed08029)">
     <use style="fill:#bcbd22;" x="378.84069" xlink:href="#C1_0_548bf911ef" y="302.533696"/>
    </g>
    <g clip-path="url(#p617ed08029)">
     <use style="fill:#bcbd22;" x="353.707741" xlink:href="#C1_0_548bf911ef" y="341.25153"/>
    </g>
    <g clip-path="url(#p617ed08029)">
     <use style="fill:#bcbd22;" x="353.392716" xlink:href="#C1_0_548bf911ef" y="298.081628"/>
    </g>
    <g clip-path="url(#p617ed08029)">
     <use style="fill:#bcbd22;" x="300.212846" xlink:href="#C1_0_548bf911ef" y="249.406561"/>
    </g>
    <g clip-path="url(#p617ed08029)">
     <use style="fill:#bcbd22;" x="395.157111" xlink:href="#C1_0_548bf911ef" y="272.461479"/>
    </g>
    <g clip-path="url(#p617ed08029)">
     <use style="fill:#bcbd22;" x="348.098174" xlink:href="#C1_0_548bf911ef" y="335.152105"/>
    </g>
    <g clip-path="url(#p617ed08029)">
     <use style="fill:#bcbd22;" x="395.666144" xlink:href="#C1_0_548bf911ef" y="352.212409"/>
    </g>
    <g clip-path="url(#p617ed08029)">
     <use style="fill:#bcbd22;" x="299.044828" xlink:href="#C1_0_548bf911ef" y="348.632365"/>
    </g>
    <g clip-path="url(#p617ed08029)">
     <use style="fill:#bcbd22;" x="350.505637" xlink:href="#C1_0_548bf911ef" y="335.031614"/>
    </g>
    <g clip-path="url(#p617ed08029)">
     <use style="fill:#bcbd22;" x="327.631308" xlink:href="#C1_0_548bf911ef" y="306.830783"/>
    </g>
    <g clip-path="url(#p617ed08029)">
     <use style="fill:#bcbd22;" x="338.400728" xlink:href="#C1_0_548bf911ef" y="281.973305"/>
    </g>
    <g clip-path="url(#p617ed08029)">
     <use style="fill:#bcbd22;" x="352.491093" xlink:href="#C1_0_548bf911ef" y="410.174311"/>
    </g>
    <g clip-path="url(#p617ed08029)">
     <use style="fill:#bcbd22;" x="313.912292" xlink:href="#C1_0_548bf911ef" y="324.432115"/>
    </g>
    <g clip-path="url(#p617ed08029)">
     <use style="fill:#bcbd22;" x="234.471711" xlink:href="#C1_0_548bf911ef" y="327.551459"/>
    </g>
    <g clip-path="url(#p617ed08029)">
     <use style="fill:#bcbd22;" x="314.466189" xlink:href="#C1_0_548bf911ef" y="326.899784"/>
    </g>
    <g clip-path="url(#p617ed08029)">
     <use style="fill:#bcbd22;" x="296.652107" xlink:href="#C1_0_548bf911ef" y="332.64398"/>
    </g>
    <g clip-path="url(#p617ed08029)">
     <use style="fill:#bcbd22;" x="296.652107" xlink:href="#C1_0_548bf911ef" y="332.64398"/>
    </g>
    <g clip-path="url(#p617ed08029)">
     <use style="fill:#bcbd22;" x="357.390481" xlink:href="#C1_0_548bf911ef" y="301.052491"/>
    </g>
    <g clip-path="url(#p617ed08029)">
     <use style="fill:#bcbd22;" x="256.997373" xlink:href="#C1_0_548bf911ef" y="328.268276"/>
    </g>
    <g clip-path="url(#p617ed08029)">
     <use style="fill:#bcbd22;" x="426.923597" xlink:href="#C1_0_548bf911ef" y="335.931941"/>
    </g>
    <g clip-path="url(#p617ed08029)">
     <use style="fill:#bcbd22;" x="342.872142" xlink:href="#C1_0_548bf911ef" y="335.678929"/>
    </g>
    <g clip-path="url(#p617ed08029)">
     <use style="fill:#bcbd22;" x="358.951548" xlink:href="#C1_0_548bf911ef" y="398.20002"/>
    </g>
    <g clip-path="url(#p617ed08029)">
     <use style="fill:#bcbd22;" x="406.951662" xlink:href="#C1_0_548bf911ef" y="34.690909"/>
    </g>
    <g clip-path="url(#p617ed08029)">
     <use style="fill:#bcbd22;" x="215.694433" xlink:href="#C1_0_548bf911ef" y="282.988407"/>
    </g>
    <g clip-path="url(#p617ed08029)">
     <use style="fill:#bcbd22;" x="413.314285" xlink:href="#C1_0_548bf911ef" y="261.253498"/>
    </g>
    <g clip-path="url(#p617ed08029)">
     <use style="fill:#bcbd22;" x="369.559461" xlink:href="#C1_0_548bf911ef" y="301.320923"/>
    </g>
    <g clip-path="url(#p617ed08029)">
     <use style="fill:#bcbd22;" x="327.052322" xlink:href="#C1_0_548bf911ef" y="296.884873"/>
    </g>
    <g clip-path="url(#p617ed08029)">
     <use style="fill:#bcbd22;" x="348.815801" xlink:href="#C1_0_548bf911ef" y="296.861293"/>
    </g>
    <g clip-path="url(#p617ed08029)">
     <use style="fill:#bcbd22;" x="300.023845" xlink:href="#C1_0_548bf911ef" y="290.886601"/>
    </g>
    <g clip-path="url(#p617ed08029)">
     <use style="fill:#bcbd22;" x="273.890239" xlink:href="#C1_0_548bf911ef" y="287.657791"/>
    </g>
    <g clip-path="url(#p617ed08029)">
     <use style="fill:#bcbd22;" x="306.775436" xlink:href="#C1_0_548bf911ef" y="292.054047"/>
    </g>
    <g clip-path="url(#p617ed08029)">
     <use style="fill:#bcbd22;" x="378.018572" xlink:href="#C1_0_548bf911ef" y="316.044445"/>
    </g>
    <g clip-path="url(#p617ed08029)">
     <use style="fill:#bcbd22;" x="281.176526" xlink:href="#C1_0_548bf911ef" y="244.261499"/>
    </g>
    <g clip-path="url(#p617ed08029)">
     <use style="fill:#bcbd22;" x="411.047528" xlink:href="#C1_0_548bf911ef" y="388.394581"/>
    </g>
    <g clip-path="url(#p617ed08029)">
     <use style="fill:#bcbd22;" x="425.034976" xlink:href="#C1_0_548bf911ef" y="336.842059"/>
    </g>
    <g clip-path="url(#p617ed08029)">
     <use style="fill:#bcbd22;" x="322.143445" xlink:href="#C1_0_548bf911ef" y="270.929166"/>
    </g>
    <g clip-path="url(#p617ed08029)">
     <use style="fill:#bcbd22;" x="477.104586" xlink:href="#C1_0_548bf911ef" y="70.692779"/>
    </g>
    <g clip-path="url(#p617ed08029)">
     <use style="fill:#bcbd22;" x="245.11732" xlink:href="#C1_0_548bf911ef" y="300.886103"/>
    </g>
    <g clip-path="url(#p617ed08029)">
     <use style="fill:#bcbd22;" x="355.041093" xlink:href="#C1_0_548bf911ef" y="301.032917"/>
    </g>
    <g clip-path="url(#p617ed08029)">
     <use style="fill:#bcbd22;" x="346.140087" xlink:href="#C1_0_548bf911ef" y="334.578352"/>
    </g>
    <g clip-path="url(#p617ed08029)">
     <use style="fill:#bcbd22;" x="384.294656" xlink:href="#C1_0_548bf911ef" y="302.201492"/>
    </g>
    <g clip-path="url(#p617ed08029)">
     <use style="fill:#bcbd22;" x="323.401591" xlink:href="#C1_0_548bf911ef" y="332.88223"/>
    </g>
    <g clip-path="url(#p617ed08029)">
     <use style="fill:#bcbd22;" x="364.407013" xlink:href="#C1_0_548bf911ef" y="355.26941"/>
    </g>
    <g clip-path="url(#p617ed08029)">
     <use style="fill:#bcbd22;" x="398.786728" xlink:href="#C1_0_548bf911ef" y="288.352698"/>
    </g>
    <g clip-path="url(#p617ed08029)">
     <use style="fill:#bcbd22;" x="331.152157" xlink:href="#C1_0_548bf911ef" y="351.195939"/>
    </g>
    <g clip-path="url(#p617ed08029)">
     <use style="fill:#bcbd22;" x="296.105413" xlink:href="#C1_0_548bf911ef" y="313.93296"/>
    </g>
    <g clip-path="url(#p617ed08029)">
     <use style="fill:#bcbd22;" x="330.99122" xlink:href="#C1_0_548bf911ef" y="338.376134"/>
    </g>
    <g clip-path="url(#p617ed08029)">
     <use style="fill:#bcbd22;" x="294.31352" xlink:href="#C1_0_548bf911ef" y="292.134098"/>
    </g>
    <g clip-path="url(#p617ed08029)">
     <use style="fill:#bcbd22;" x="343.412561" xlink:href="#C1_0_548bf911ef" y="351.389544"/>
    </g>
    <g clip-path="url(#p617ed08029)">
     <use style="fill:#bcbd22;" x="399.126975" xlink:href="#C1_0_548bf911ef" y="288.835693"/>
    </g>
    <g clip-path="url(#p617ed08029)">
     <use style="fill:#bcbd22;" x="328.003738" xlink:href="#C1_0_548bf911ef" y="351.302585"/>
    </g>
    <g clip-path="url(#p617ed08029)">
     <use style="fill:#bcbd22;" x="335.910987" xlink:href="#C1_0_548bf911ef" y="339.34655"/>
    </g>
    <g clip-path="url(#p617ed08029)">
     <use style="fill:#bcbd22;" x="295.936966" xlink:href="#C1_0_548bf911ef" y="392.293751"/>
    </g>
    <g clip-path="url(#p617ed08029)">
     <use style="fill:#bcbd22;" x="361.421347" xlink:href="#C1_0_548bf911ef" y="334.943329"/>
    </g>
    <g clip-path="url(#p617ed08029)">
     <use style="fill:#bcbd22;" x="307.615371" xlink:href="#C1_0_548bf911ef" y="348.359254"/>
    </g>
    <g clip-path="url(#p617ed08029)">
     <use style="fill:#bcbd22;" x="300.804138" xlink:href="#C1_0_548bf911ef" y="313.972458"/>
    </g>
    <g clip-path="url(#p617ed08029)">
     <use style="fill:#bcbd22;" x="231.473557" xlink:href="#C1_0_548bf911ef" y="351.552397"/>
    </g>
    <g clip-path="url(#p617ed08029)">
     <use style="fill:#bcbd22;" x="360.966045" xlink:href="#C1_0_548bf911ef" y="396.365755"/>
    </g>
    <g clip-path="url(#p617ed08029)">
     <use style="fill:#bcbd22;" x="331.139762" xlink:href="#C1_0_548bf911ef" y="294.224938"/>
    </g>
    <g clip-path="url(#p617ed08029)">
     <use style="fill:#bcbd22;" x="84.315909" xlink:href="#C1_0_548bf911ef" y="415.992109"/>
    </g>
    <g clip-path="url(#p617ed08029)">
     <use style="fill:#bcbd22;" x="343.151328" xlink:href="#C1_0_548bf911ef" y="282.116795"/>
    </g>
    <g clip-path="url(#p617ed08029)">
     <use style="fill:#bcbd22;" x="156.027977" xlink:href="#C1_0_548bf911ef" y="308.420072"/>
    </g>
    <g clip-path="url(#p617ed08029)">
     <use style="fill:#bcbd22;" x="414.900383" xlink:href="#C1_0_548bf911ef" y="304.133958"/>
    </g>
    <g clip-path="url(#p617ed08029)">
     <use style="fill:#bcbd22;" x="333.885914" xlink:href="#C1_0_548bf911ef" y="298.249835"/>
    </g>
    <g clip-path="url(#p617ed08029)">
     <use style="fill:#bcbd22;" x="355.041093" xlink:href="#C1_0_548bf911ef" y="301.032917"/>
    </g>
    <g clip-path="url(#p617ed08029)">
     <use style="fill:#bcbd22;" x="349.014629" xlink:href="#C1_0_548bf911ef" y="297.289557"/>
    </g>
    <g clip-path="url(#p617ed08029)">
     <use style="fill:#bcbd22;" x="296.681626" xlink:href="#C1_0_548bf911ef" y="261.410433"/>
    </g>
    <g clip-path="url(#p617ed08029)">
     <use style="fill:#bcbd22;" x="297.483317" xlink:href="#C1_0_548bf911ef" y="243.851118"/>
    </g>
    <g clip-path="url(#p617ed08029)">
     <use style="fill:#bcbd22;" x="362.387929" xlink:href="#C1_0_548bf911ef" y="263.363389"/>
    </g>
    <g clip-path="url(#p617ed08029)">
     <use style="fill:#bcbd22;" x="276.216181" xlink:href="#C1_0_548bf911ef" y="255.95436"/>
    </g>
    <g clip-path="url(#p617ed08029)">
     <use style="fill:#bcbd22;" x="259.219079" xlink:href="#C1_0_548bf911ef" y="284.244592"/>
    </g>
    <g clip-path="url(#p617ed08029)">
     <use style="fill:#bcbd22;" x="161.736153" xlink:href="#C1_0_548bf911ef" y="276.749635"/>
    </g>
    <g clip-path="url(#p617ed08029)">
     <use style="fill:#bcbd22;" x="425.239548" xlink:href="#C1_0_548bf911ef" y="531.22825"/>
    </g>
    <g clip-path="url(#p617ed08029)">
     <use style="fill:#bcbd22;" x="352.572141" xlink:href="#C1_0_548bf911ef" y="349.593912"/>
    </g>
    <g clip-path="url(#p617ed08029)">
     <use style="fill:#bcbd22;" x="427.427316" xlink:href="#C1_0_548bf911ef" y="390.199895"/>
    </g>
    <g clip-path="url(#p617ed08029)">
     <use style="fill:#bcbd22;" x="364.12134" xlink:href="#C1_0_548bf911ef" y="342.189693"/>
    </g>
    <g clip-path="url(#p617ed08029)">
     <use style="fill:#bcbd22;" x="292.079396" xlink:href="#C1_0_548bf911ef" y="292.117507"/>
    </g>
    <g clip-path="url(#p617ed08029)">
     <use style="fill:#bcbd22;" x="343.921491" xlink:href="#C1_0_548bf911ef" y="312.31986"/>
    </g>
    <g clip-path="url(#p617ed08029)">
     <use style="fill:#bcbd22;" x="453.040985" xlink:href="#C1_0_548bf911ef" y="58.526309"/>
    </g>
    <g clip-path="url(#p617ed08029)">
     <use style="fill:#bcbd22;" x="353.690917" xlink:href="#C1_0_548bf911ef" y="295.649578"/>
    </g>
    <g clip-path="url(#p617ed08029)">
     <use style="fill:#bcbd22;" x="363.31912" xlink:href="#C1_0_548bf911ef" y="299.730771"/>
    </g>
    <g clip-path="url(#p617ed08029)">
     <use style="fill:#bcbd22;" x="351.998355" xlink:href="#C1_0_548bf911ef" y="297.664575"/>
    </g>
    <g clip-path="url(#p617ed08029)">
     <use style="fill:#bcbd22;" x="334.506054" xlink:href="#C1_0_548bf911ef" y="298.282424"/>
    </g>
    <g clip-path="url(#p617ed08029)">
     <use style="fill:#bcbd22;" x="392.092398" xlink:href="#C1_0_548bf911ef" y="299.483294"/>
    </g>
    <g clip-path="url(#p617ed08029)">
     <use style="fill:#bcbd22;" x="345.704891" xlink:href="#C1_0_548bf911ef" y="300.956971"/>
    </g>
    <g clip-path="url(#p617ed08029)">
     <use style="fill:#bcbd22;" x="350.387233" xlink:href="#C1_0_548bf911ef" y="280.883119"/>
    </g>
    <g clip-path="url(#p617ed08029)">
     <use style="fill:#bcbd22;" x="420.742969" xlink:href="#C1_0_548bf911ef" y="325.06123"/>
    </g>
    <g clip-path="url(#p617ed08029)">
     <use style="fill:#bcbd22;" x="357.451802" xlink:href="#C1_0_548bf911ef" y="301.054835"/>
    </g>
    <g clip-path="url(#p617ed08029)">
     <use style="fill:#bcbd22;" x="377.102438" xlink:href="#C1_0_548bf911ef" y="313.040766"/>
    </g>
    <g clip-path="url(#p617ed08029)">
     <use style="fill:#bcbd22;" x="393.725422" xlink:href="#C1_0_548bf911ef" y="331.735078"/>
    </g>
    <g clip-path="url(#p617ed08029)">
     <use style="fill:#bcbd22;" x="333.259328" xlink:href="#C1_0_548bf911ef" y="317.699254"/>
    </g>
    <g clip-path="url(#p617ed08029)">
     <use style="fill:#bcbd22;" x="340.346329" xlink:href="#C1_0_548bf911ef" y="296.702053"/>
    </g>
    <g clip-path="url(#p617ed08029)">
     <use style="fill:#bcbd22;" x="293.62637" xlink:href="#C1_0_548bf911ef" y="292.252851"/>
    </g>
    <g clip-path="url(#p617ed08029)">
     <use style="fill:#bcbd22;" x="378.125267" xlink:href="#C1_0_548bf911ef" y="302.106423"/>
    </g>
    <g clip-path="url(#p617ed08029)">
     <use style="fill:#bcbd22;" x="508.974301" xlink:href="#C1_0_548bf911ef" y="217.764771"/>
    </g>
    <g clip-path="url(#p617ed08029)">
     <use style="fill:#bcbd22;" x="389.180547" xlink:href="#C1_0_548bf911ef" y="250.352666"/>
    </g>
    <g clip-path="url(#p617ed08029)">
     <use style="fill:#bcbd22;" x="362.056588" xlink:href="#C1_0_548bf911ef" y="356.291516"/>
    </g>
    <g clip-path="url(#p617ed08029)">
     <use style="fill:#bcbd22;" x="414.705103" xlink:href="#C1_0_548bf911ef" y="109.023086"/>
    </g>
    <g clip-path="url(#p617ed08029)">
     <use style="fill:#bcbd22;" x="472.528233" xlink:href="#C1_0_548bf911ef" y="360.477213"/>
    </g>
    <g clip-path="url(#p617ed08029)">
     <use style="fill:#bcbd22;" x="490.63219" xlink:href="#C1_0_548bf911ef" y="401.170177"/>
    </g>
    <g clip-path="url(#p617ed08029)">
     <use style="fill:#bcbd22;" x="475.9433" xlink:href="#C1_0_548bf911ef" y="360.202771"/>
    </g>
    <g clip-path="url(#p617ed08029)">
     <use style="fill:#bcbd22;" x="474.877669" xlink:href="#C1_0_548bf911ef" y="360.497591"/>
    </g>
    <g clip-path="url(#p617ed08029)">
     <use style="fill:#bcbd22;" x="467.823055" xlink:href="#C1_0_548bf911ef" y="369.43421"/>
    </g>
    <g clip-path="url(#p617ed08029)">
     <use style="fill:#bcbd22;" x="477.251491" xlink:href="#C1_0_548bf911ef" y="360.439754"/>
    </g>
    <g clip-path="url(#p617ed08029)">
     <use style="fill:#bcbd22;" x="634.134091" xlink:href="#C1_0_548bf911ef" y="202.36588"/>
    </g>
    <g clip-path="url(#p617ed08029)">
     <use style="fill:#bcbd22;" x="288.041314" xlink:href="#C1_0_548bf911ef" y="332.116251"/>
    </g>
    <g clip-path="url(#p617ed08029)">
     <use style="fill:#bcbd22;" x="474.877669" xlink:href="#C1_0_548bf911ef" y="360.497591"/>
    </g>
    <g clip-path="url(#p617ed08029)">
     <use style="fill:#bcbd22;" x="451.934606" xlink:href="#C1_0_548bf911ef" y="308.147779"/>
    </g>
    <g clip-path="url(#p617ed08029)">
     <use style="fill:#bcbd22;" x="457.07964" xlink:href="#C1_0_548bf911ef" y="495.949066"/>
    </g>
    <g clip-path="url(#p617ed08029)">
     <use style="fill:#bcbd22;" x="364.947508" xlink:href="#C1_0_548bf911ef" y="260.097766"/>
    </g>
    <g clip-path="url(#p617ed08029)">
     <use style="fill:#bcbd22;" x="339.250858" xlink:href="#C1_0_548bf911ef" y="259.623337"/>
    </g>
    <g clip-path="url(#p617ed08029)">
     <use style="fill:#bcbd22;" x="361.206396" xlink:href="#C1_0_548bf911ef" y="262.047034"/>
    </g>
    <g clip-path="url(#p617ed08029)">
     <use style="fill:#bcbd22;" x="263.869056" xlink:href="#C1_0_548bf911ef" y="291.859395"/>
    </g>
    <g clip-path="url(#p617ed08029)">
     <use style="fill:#bcbd22;" x="432.707754" xlink:href="#C1_0_548bf911ef" y="213.888273"/>
    </g>
    <g clip-path="url(#p617ed08029)">
     <use style="fill:#bcbd22;" x="357.390481" xlink:href="#C1_0_548bf911ef" y="301.052491"/>
    </g>
    <g clip-path="url(#p617ed08029)">
     <use style="fill:#bcbd22;" x="353.974417" xlink:href="#C1_0_548bf911ef" y="304.167782"/>
    </g>
    <g clip-path="url(#p617ed08029)">
     <use style="fill:#bcbd22;" x="317.437681" xlink:href="#C1_0_548bf911ef" y="297.075969"/>
    </g>
    <g clip-path="url(#p617ed08029)">
     <use style="fill:#bcbd22;" x="348.174154" xlink:href="#C1_0_548bf911ef" y="339.499661"/>
    </g>
    <g clip-path="url(#p617ed08029)">
     <use style="fill:#bcbd22;" x="464.832013" xlink:href="#C1_0_548bf911ef" y="584.509091"/>
    </g>
    <g clip-path="url(#p617ed08029)">
     <use style="fill:#bcbd22;" x="370.821244" xlink:href="#C1_0_548bf911ef" y="306.592386"/>
    </g>
    <g clip-path="url(#p617ed08029)">
     <use style="fill:#bcbd22;" x="446.144992" xlink:href="#C1_0_548bf911ef" y="278.507209"/>
    </g>
    <g clip-path="url(#p617ed08029)">
     <use style="fill:#bcbd22;" x="424.870749" xlink:href="#C1_0_548bf911ef" y="351.248354"/>
    </g>
   </g>
   <g id="matplotlib.axis_1">
    <g id="xtick_1">
     <g id="line2d_1">
      <defs>
       <path d="M 0 0 
L 0 3.5 
" id="m6b72ca0c19" style="stroke:#000000;stroke-width:0.8;"/>
      </defs>
      <g>
       <use style="stroke:#000000;stroke-width:0.8;" x="119.562816" xlink:href="#m6b72ca0c19" y="612"/>
      </g>
     </g>
     <g id="text_1">
      <!-- 0.0052 -->
      <defs>
       <path d="M 31.78125 66.40625 
Q 24.171875 66.40625 20.328125 58.90625 
Q 16.5 51.421875 16.5 36.375 
Q 16.5 21.390625 20.328125 13.890625 
Q 24.171875 6.390625 31.78125 6.390625 
Q 39.453125 6.390625 43.28125 13.890625 
Q 47.125 21.390625 47.125 36.375 
Q 47.125 51.421875 43.28125 58.90625 
Q 39.453125 66.40625 31.78125 66.40625 
z
M 31.78125 74.21875 
Q 44.046875 74.21875 50.515625 64.515625 
Q 56.984375 54.828125 56.984375 36.375 
Q 56.984375 17.96875 50.515625 8.265625 
Q 44.046875 -1.421875 31.78125 -1.421875 
Q 19.53125 -1.421875 13.0625 8.265625 
Q 6.59375 17.96875 6.59375 36.375 
Q 6.59375 54.828125 13.0625 64.515625 
Q 19.53125 74.21875 31.78125 74.21875 
z
" id="DejaVuSans-48"/>
       <path d="M 10.6875 12.40625 
L 21 12.40625 
L 21 0 
L 10.6875 0 
z
" id="DejaVuSans-46"/>
       <path d="M 10.796875 72.90625 
L 49.515625 72.90625 
L 49.515625 64.59375 
L 19.828125 64.59375 
L 19.828125 46.734375 
Q 21.96875 47.46875 24.109375 47.828125 
Q 26.265625 48.1875 28.421875 48.1875 
Q 40.625 48.1875 47.75 41.5 
Q 54.890625 34.8125 54.890625 23.390625 
Q 54.890625 11.625 47.5625 5.09375 
Q 40.234375 -1.421875 26.90625 -1.421875 
Q 22.3125 -1.421875 17.546875 -0.640625 
Q 12.796875 0.140625 7.71875 1.703125 
L 7.71875 11.625 
Q 12.109375 9.234375 16.796875 8.0625 
Q 21.484375 6.890625 26.703125 6.890625 
Q 35.15625 6.890625 40.078125 11.328125 
Q 45.015625 15.765625 45.015625 23.390625 
Q 45.015625 31 40.078125 35.4375 
Q 35.15625 39.890625 26.703125 39.890625 
Q 22.75 39.890625 18.8125 39.015625 
Q 14.890625 38.140625 10.796875 36.28125 
z
" id="DejaVuSans-53"/>
       <path d="M 19.1875 8.296875 
L 53.609375 8.296875 
L 53.609375 0 
L 7.328125 0 
L 7.328125 8.296875 
Q 12.9375 14.109375 22.625 23.890625 
Q 32.328125 33.6875 34.8125 36.53125 
Q 39.546875 41.84375 41.421875 45.53125 
Q 43.3125 49.21875 43.3125 52.78125 
Q 43.3125 58.59375 39.234375 62.25 
Q 35.15625 65.921875 28.609375 65.921875 
Q 23.96875 65.921875 18.8125 64.3125 
Q 13.671875 62.703125 7.8125 59.421875 
L 7.8125 69.390625 
Q 13.765625 71.78125 18.9375 73 
Q 24.125 74.21875 28.421875 74.21875 
Q 39.75 74.21875 46.484375 68.546875 
Q 53.21875 62.890625 53.21875 53.421875 
Q 53.21875 48.921875 51.53125 44.890625 
Q 49.859375 40.875 45.40625 35.40625 
Q 44.1875 33.984375 37.640625 27.21875 
Q 31.109375 20.453125 19.1875 8.296875 
z
" id="DejaVuSans-50"/>
      </defs>
      <g transform="translate(102.067504 626.598437)scale(0.1 -0.1)">
       <use xlink:href="#DejaVuSans-48"/>
       <use x="63.623047" xlink:href="#DejaVuSans-46"/>
       <use x="95.410156" xlink:href="#DejaVuSans-48"/>
       <use x="159.033203" xlink:href="#DejaVuSans-48"/>
       <use x="222.65625" xlink:href="#DejaVuSans-53"/>
       <use x="286.279297" xlink:href="#DejaVuSans-50"/>
      </g>
     </g>
    </g>
    <g id="xtick_2">
     <g id="line2d_2">
      <g>
       <use style="stroke:#000000;stroke-width:0.8;" x="197.902425" xlink:href="#m6b72ca0c19" y="612"/>
      </g>
     </g>
     <g id="text_2">
      <!-- 0.0054 -->
      <defs>
       <path d="M 37.796875 64.3125 
L 12.890625 25.390625 
L 37.796875 25.390625 
z
M 35.203125 72.90625 
L 47.609375 72.90625 
L 47.609375 25.390625 
L 58.015625 25.390625 
L 58.015625 17.1875 
L 47.609375 17.1875 
L 47.609375 0 
L 37.796875 0 
L 37.796875 17.1875 
L 4.890625 17.1875 
L 4.890625 26.703125 
z
" id="DejaVuSans-52"/>
      </defs>
      <g transform="translate(180.407113 626.598437)scale(0.1 -0.1)">
       <use xlink:href="#DejaVuSans-48"/>
       <use x="63.623047" xlink:href="#DejaVuSans-46"/>
       <use x="95.410156" xlink:href="#DejaVuSans-48"/>
       <use x="159.033203" xlink:href="#DejaVuSans-48"/>
       <use x="222.65625" xlink:href="#DejaVuSans-53"/>
       <use x="286.279297" xlink:href="#DejaVuSans-52"/>
      </g>
     </g>
    </g>
    <g id="xtick_3">
     <g id="line2d_3">
      <g>
       <use style="stroke:#000000;stroke-width:0.8;" x="276.242034" xlink:href="#m6b72ca0c19" y="612"/>
      </g>
     </g>
     <g id="text_3">
      <!-- 0.0056 -->
      <defs>
       <path d="M 33.015625 40.375 
Q 26.375 40.375 22.484375 35.828125 
Q 18.609375 31.296875 18.609375 23.390625 
Q 18.609375 15.53125 22.484375 10.953125 
Q 26.375 6.390625 33.015625 6.390625 
Q 39.65625 6.390625 43.53125 10.953125 
Q 47.40625 15.53125 47.40625 23.390625 
Q 47.40625 31.296875 43.53125 35.828125 
Q 39.65625 40.375 33.015625 40.375 
z
M 52.59375 71.296875 
L 52.59375 62.3125 
Q 48.875 64.0625 45.09375 64.984375 
Q 41.3125 65.921875 37.59375 65.921875 
Q 27.828125 65.921875 22.671875 59.328125 
Q 17.53125 52.734375 16.796875 39.40625 
Q 19.671875 43.65625 24.015625 45.921875 
Q 28.375 48.1875 33.59375 48.1875 
Q 44.578125 48.1875 50.953125 41.515625 
Q 57.328125 34.859375 57.328125 23.390625 
Q 57.328125 12.15625 50.6875 5.359375 
Q 44.046875 -1.421875 33.015625 -1.421875 
Q 20.359375 -1.421875 13.671875 8.265625 
Q 6.984375 17.96875 6.984375 36.375 
Q 6.984375 53.65625 15.1875 63.9375 
Q 23.390625 74.21875 37.203125 74.21875 
Q 40.921875 74.21875 44.703125 73.484375 
Q 48.484375 72.75 52.59375 71.296875 
z
" id="DejaVuSans-54"/>
      </defs>
      <g transform="translate(258.746722 626.598437)scale(0.1 -0.1)">
       <use xlink:href="#DejaVuSans-48"/>
       <use x="63.623047" xlink:href="#DejaVuSans-46"/>
       <use x="95.410156" xlink:href="#DejaVuSans-48"/>
       <use x="159.033203" xlink:href="#DejaVuSans-48"/>
       <use x="222.65625" xlink:href="#DejaVuSans-53"/>
       <use x="286.279297" xlink:href="#DejaVuSans-54"/>
      </g>
     </g>
    </g>
    <g id="xtick_4">
     <g id="line2d_4">
      <g>
       <use style="stroke:#000000;stroke-width:0.8;" x="354.581643" xlink:href="#m6b72ca0c19" y="612"/>
      </g>
     </g>
     <g id="text_4">
      <!-- 0.0058 -->
      <defs>
       <path d="M 31.78125 34.625 
Q 24.75 34.625 20.71875 30.859375 
Q 16.703125 27.09375 16.703125 20.515625 
Q 16.703125 13.921875 20.71875 10.15625 
Q 24.75 6.390625 31.78125 6.390625 
Q 38.8125 6.390625 42.859375 10.171875 
Q 46.921875 13.96875 46.921875 20.515625 
Q 46.921875 27.09375 42.890625 30.859375 
Q 38.875 34.625 31.78125 34.625 
z
M 21.921875 38.8125 
Q 15.578125 40.375 12.03125 44.71875 
Q 8.5 49.078125 8.5 55.328125 
Q 8.5 64.0625 14.71875 69.140625 
Q 20.953125 74.21875 31.78125 74.21875 
Q 42.671875 74.21875 48.875 69.140625 
Q 55.078125 64.0625 55.078125 55.328125 
Q 55.078125 49.078125 51.53125 44.71875 
Q 48 40.375 41.703125 38.8125 
Q 48.828125 37.15625 52.796875 32.3125 
Q 56.78125 27.484375 56.78125 20.515625 
Q 56.78125 9.90625 50.3125 4.234375 
Q 43.84375 -1.421875 31.78125 -1.421875 
Q 19.734375 -1.421875 13.25 4.234375 
Q 6.78125 9.90625 6.78125 20.515625 
Q 6.78125 27.484375 10.78125 32.3125 
Q 14.796875 37.15625 21.921875 38.8125 
z
M 18.3125 54.390625 
Q 18.3125 48.734375 21.84375 45.5625 
Q 25.390625 42.390625 31.78125 42.390625 
Q 38.140625 42.390625 41.71875 45.5625 
Q 45.3125 48.734375 45.3125 54.390625 
Q 45.3125 60.0625 41.71875 63.234375 
Q 38.140625 66.40625 31.78125 66.40625 
Q 25.390625 66.40625 21.84375 63.234375 
Q 18.3125 60.0625 18.3125 54.390625 
z
" id="DejaVuSans-56"/>
      </defs>
      <g transform="translate(337.086331 626.598437)scale(0.1 -0.1)">
       <use xlink:href="#DejaVuSans-48"/>
       <use x="63.623047" xlink:href="#DejaVuSans-46"/>
       <use x="95.410156" xlink:href="#DejaVuSans-48"/>
       <use x="159.033203" xlink:href="#DejaVuSans-48"/>
       <use x="222.65625" xlink:href="#DejaVuSans-53"/>
       <use x="286.279297" xlink:href="#DejaVuSans-56"/>
      </g>
     </g>
    </g>
    <g id="xtick_5">
     <g id="line2d_5">
      <g>
       <use style="stroke:#000000;stroke-width:0.8;" x="432.921252" xlink:href="#m6b72ca0c19" y="612"/>
      </g>
     </g>
     <g id="text_5">
      <!-- 0.0060 -->
      <g transform="translate(415.42594 626.598437)scale(0.1 -0.1)">
       <use xlink:href="#DejaVuSans-48"/>
       <use x="63.623047" xlink:href="#DejaVuSans-46"/>
       <use x="95.410156" xlink:href="#DejaVuSans-48"/>
       <use x="159.033203" xlink:href="#DejaVuSans-48"/>
       <use x="222.65625" xlink:href="#DejaVuSans-54"/>
       <use x="286.279297" xlink:href="#DejaVuSans-48"/>
      </g>
     </g>
    </g>
    <g id="xtick_6">
     <g id="line2d_6">
      <g>
       <use style="stroke:#000000;stroke-width:0.8;" x="511.260861" xlink:href="#m6b72ca0c19" y="612"/>
      </g>
     </g>
     <g id="text_6">
      <!-- 0.0062 -->
      <g transform="translate(493.765549 626.598437)scale(0.1 -0.1)">
       <use xlink:href="#DejaVuSans-48"/>
       <use x="63.623047" xlink:href="#DejaVuSans-46"/>
       <use x="95.410156" xlink:href="#DejaVuSans-48"/>
       <use x="159.033203" xlink:href="#DejaVuSans-48"/>
       <use x="222.65625" xlink:href="#DejaVuSans-54"/>
       <use x="286.279297" xlink:href="#DejaVuSans-50"/>
      </g>
     </g>
    </g>
    <g id="xtick_7">
     <g id="line2d_7">
      <g>
       <use style="stroke:#000000;stroke-width:0.8;" x="589.60047" xlink:href="#m6b72ca0c19" y="612"/>
      </g>
     </g>
     <g id="text_7">
      <!-- 0.0064 -->
      <g transform="translate(572.105158 626.598437)scale(0.1 -0.1)">
       <use xlink:href="#DejaVuSans-48"/>
       <use x="63.623047" xlink:href="#DejaVuSans-46"/>
       <use x="95.410156" xlink:href="#DejaVuSans-48"/>
       <use x="159.033203" xlink:href="#DejaVuSans-48"/>
       <use x="222.65625" xlink:href="#DejaVuSans-54"/>
       <use x="286.279297" xlink:href="#DejaVuSans-52"/>
      </g>
     </g>
    </g>
    <g id="text_8">
     <!-- PCA1 -->
     <defs>
      <path d="M 19.671875 64.796875 
L 19.671875 37.40625 
L 32.078125 37.40625 
Q 38.96875 37.40625 42.71875 40.96875 
Q 46.484375 44.53125 46.484375 51.125 
Q 46.484375 57.671875 42.71875 61.234375 
Q 38.96875 64.796875 32.078125 64.796875 
z
M 9.8125 72.90625 
L 32.078125 72.90625 
Q 44.34375 72.90625 50.609375 67.359375 
Q 56.890625 61.8125 56.890625 51.125 
Q 56.890625 40.328125 50.609375 34.8125 
Q 44.34375 29.296875 32.078125 29.296875 
L 19.671875 29.296875 
L 19.671875 0 
L 9.8125 0 
z
" id="DejaVuSans-80"/>
      <path d="M 64.40625 67.28125 
L 64.40625 56.890625 
Q 59.421875 61.53125 53.78125 63.8125 
Q 48.140625 66.109375 41.796875 66.109375 
Q 29.296875 66.109375 22.65625 58.46875 
Q 16.015625 50.828125 16.015625 36.375 
Q 16.015625 21.96875 22.65625 14.328125 
Q 29.296875 6.6875 41.796875 6.6875 
Q 48.140625 6.6875 53.78125 8.984375 
Q 59.421875 11.28125 64.40625 15.921875 
L 64.40625 5.609375 
Q 59.234375 2.09375 53.4375 0.328125 
Q 47.65625 -1.421875 41.21875 -1.421875 
Q 24.65625 -1.421875 15.125 8.703125 
Q 5.609375 18.84375 5.609375 36.375 
Q 5.609375 53.953125 15.125 64.078125 
Q 24.65625 74.21875 41.21875 74.21875 
Q 47.75 74.21875 53.53125 72.484375 
Q 59.328125 70.75 64.40625 67.28125 
z
" id="DejaVuSans-67"/>
      <path d="M 34.1875 63.1875 
L 20.796875 26.90625 
L 47.609375 26.90625 
z
M 28.609375 72.90625 
L 39.796875 72.90625 
L 67.578125 0 
L 57.328125 0 
L 50.6875 18.703125 
L 17.828125 18.703125 
L 11.1875 0 
L 0.78125 0 
z
" id="DejaVuSans-65"/>
      <path d="M 12.40625 8.296875 
L 28.515625 8.296875 
L 28.515625 63.921875 
L 10.984375 60.40625 
L 10.984375 69.390625 
L 28.421875 72.90625 
L 38.28125 72.90625 
L 38.28125 8.296875 
L 54.390625 8.296875 
L 54.390625 0 
L 12.40625 0 
z
" id="DejaVuSans-49"/>
     </defs>
     <g transform="translate(346.117188 640.276562)scale(0.1 -0.1)">
      <use xlink:href="#DejaVuSans-80"/>
      <use x="60.302734" xlink:href="#DejaVuSans-67"/>
      <use x="130.126953" xlink:href="#DejaVuSans-65"/>
      <use x="198.535156" xlink:href="#DejaVuSans-49"/>
     </g>
    </g>
   </g>
   <g id="matplotlib.axis_2">
    <g id="ytick_1">
     <g id="line2d_8">
      <defs>
       <path d="M 0 0 
L -3.5 0 
" id="m54392bfe44" style="stroke:#000000;stroke-width:0.8;"/>
      </defs>
      <g>
       <use style="stroke:#000000;stroke-width:0.8;" x="56.825" xlink:href="#m54392bfe44" y="529.174012"/>
      </g>
     </g>
     <g id="text_9">
      <!-- 0.247 -->
      <defs>
       <path d="M 8.203125 72.90625 
L 55.078125 72.90625 
L 55.078125 68.703125 
L 28.609375 0 
L 18.3125 0 
L 43.21875 64.59375 
L 8.203125 64.59375 
z
" id="DejaVuSans-55"/>
      </defs>
      <g transform="translate(21.196875 532.973231)scale(0.1 -0.1)">
       <use xlink:href="#DejaVuSans-48"/>
       <use x="63.623047" xlink:href="#DejaVuSans-46"/>
       <use x="95.410156" xlink:href="#DejaVuSans-50"/>
       <use x="159.033203" xlink:href="#DejaVuSans-52"/>
       <use x="222.65625" xlink:href="#DejaVuSans-55"/>
      </g>
     </g>
    </g>
    <g id="ytick_2">
     <g id="line2d_9">
      <g>
       <use style="stroke:#000000;stroke-width:0.8;" x="56.825" xlink:href="#m54392bfe44" y="423.786599"/>
      </g>
     </g>
     <g id="text_10">
      <!-- 0.248 -->
      <g transform="translate(21.196875 427.585818)scale(0.1 -0.1)">
       <use xlink:href="#DejaVuSans-48"/>
       <use x="63.623047" xlink:href="#DejaVuSans-46"/>
       <use x="95.410156" xlink:href="#DejaVuSans-50"/>
       <use x="159.033203" xlink:href="#DejaVuSans-52"/>
       <use x="222.65625" xlink:href="#DejaVuSans-56"/>
      </g>
     </g>
    </g>
    <g id="ytick_3">
     <g id="line2d_10">
      <g>
       <use style="stroke:#000000;stroke-width:0.8;" x="56.825" xlink:href="#m54392bfe44" y="318.399186"/>
      </g>
     </g>
     <g id="text_11">
      <!-- 0.249 -->
      <defs>
       <path d="M 10.984375 1.515625 
L 10.984375 10.5 
Q 14.703125 8.734375 18.5 7.8125 
Q 22.3125 6.890625 25.984375 6.890625 
Q 35.75 6.890625 40.890625 13.453125 
Q 46.046875 20.015625 46.78125 33.40625 
Q 43.953125 29.203125 39.59375 26.953125 
Q 35.25 24.703125 29.984375 24.703125 
Q 19.046875 24.703125 12.671875 31.3125 
Q 6.296875 37.9375 6.296875 49.421875 
Q 6.296875 60.640625 12.9375 67.421875 
Q 19.578125 74.21875 30.609375 74.21875 
Q 43.265625 74.21875 49.921875 64.515625 
Q 56.59375 54.828125 56.59375 36.375 
Q 56.59375 19.140625 48.40625 8.859375 
Q 40.234375 -1.421875 26.421875 -1.421875 
Q 22.703125 -1.421875 18.890625 -0.6875 
Q 15.09375 0.046875 10.984375 1.515625 
z
M 30.609375 32.421875 
Q 37.25 32.421875 41.125 36.953125 
Q 45.015625 41.5 45.015625 49.421875 
Q 45.015625 57.28125 41.125 61.84375 
Q 37.25 66.40625 30.609375 66.40625 
Q 23.96875 66.40625 20.09375 61.84375 
Q 16.21875 57.28125 16.21875 49.421875 
Q 16.21875 41.5 20.09375 36.953125 
Q 23.96875 32.421875 30.609375 32.421875 
z
" id="DejaVuSans-57"/>
      </defs>
      <g transform="translate(21.196875 322.198405)scale(0.1 -0.1)">
       <use xlink:href="#DejaVuSans-48"/>
       <use x="63.623047" xlink:href="#DejaVuSans-46"/>
       <use x="95.410156" xlink:href="#DejaVuSans-50"/>
       <use x="159.033203" xlink:href="#DejaVuSans-52"/>
       <use x="222.65625" xlink:href="#DejaVuSans-57"/>
      </g>
     </g>
    </g>
    <g id="ytick_4">
     <g id="line2d_11">
      <g>
       <use style="stroke:#000000;stroke-width:0.8;" x="56.825" xlink:href="#m54392bfe44" y="213.011773"/>
      </g>
     </g>
     <g id="text_12">
      <!-- 0.250 -->
      <g transform="translate(21.196875 216.810992)scale(0.1 -0.1)">
       <use xlink:href="#DejaVuSans-48"/>
       <use x="63.623047" xlink:href="#DejaVuSans-46"/>
       <use x="95.410156" xlink:href="#DejaVuSans-50"/>
       <use x="159.033203" xlink:href="#DejaVuSans-53"/>
       <use x="222.65625" xlink:href="#DejaVuSans-48"/>
      </g>
     </g>
    </g>
    <g id="ytick_5">
     <g id="line2d_12">
      <g>
       <use style="stroke:#000000;stroke-width:0.8;" x="56.825" xlink:href="#m54392bfe44" y="107.62436"/>
      </g>
     </g>
     <g id="text_13">
      <!-- 0.251 -->
      <g transform="translate(21.196875 111.423579)scale(0.1 -0.1)">
       <use xlink:href="#DejaVuSans-48"/>
       <use x="63.623047" xlink:href="#DejaVuSans-46"/>
       <use x="95.410156" xlink:href="#DejaVuSans-50"/>
       <use x="159.033203" xlink:href="#DejaVuSans-53"/>
       <use x="222.65625" xlink:href="#DejaVuSans-49"/>
      </g>
     </g>
    </g>
    <g id="text_14">
     <!-- PCA2 -->
     <g transform="translate(15.117188 322.707812)rotate(-90)scale(0.1 -0.1)">
      <use xlink:href="#DejaVuSans-80"/>
      <use x="60.302734" xlink:href="#DejaVuSans-67"/>
      <use x="130.126953" xlink:href="#DejaVuSans-65"/>
      <use x="198.535156" xlink:href="#DejaVuSans-50"/>
     </g>
    </g>
   </g>
   <g id="PathCollection_3">
    <path clip-path="url(#p617ed08029)" d="M 401.703757 310.221535 
C 403.029773 310.221535 404.301657 309.694703 405.239291 308.757069 
C 406.176926 307.819434 406.703757 306.54755 406.703757 305.221535 
C 406.703757 303.895519 406.176926 302.623635 405.239291 301.686001 
C 404.301657 300.748366 403.029773 300.221535 401.703757 300.221535 
C 400.377742 300.221535 399.105858 300.748366 398.168223 301.686001 
C 397.230589 302.623635 396.703757 303.895519 396.703757 305.221535 
C 396.703757 306.54755 397.230589 307.819434 398.168223 308.757069 
C 399.105858 309.694703 400.377742 310.221535 401.703757 310.221535 
z
"/>
   </g>
   <g id="patch_3">
    <path d="M 56.825 612 
L 56.825 7.2 
" style="fill:none;stroke:#000000;stroke-linecap:square;stroke-linejoin:miter;stroke-width:0.8;"/>
   </g>
   <g id="patch_4">
    <path d="M 56.825 612 
L 661.625 612 
" style="fill:none;stroke:#000000;stroke-linecap:square;stroke-linejoin:miter;stroke-width:0.8;"/>
   </g>
   <g id="legend_1">
    <g id="patch_5">
     <path d="M 560.523438 73.9125 
L 654.625 73.9125 
Q 656.625 73.9125 656.625 71.9125 
L 656.625 14.2 
Q 656.625 12.2 654.625 12.2 
L 560.523438 12.2 
Q 558.523438 12.2 558.523438 14.2 
L 558.523438 71.9125 
Q 558.523438 73.9125 560.523438 73.9125 
z
" style="fill:#ffffff;opacity:0.8;stroke:#000000;stroke-linejoin:miter;"/>
    </g>
    <g id="text_15">
     <!-- class -->
     <defs>
      <path d="M 48.78125 52.59375 
L 48.78125 44.1875 
Q 44.96875 46.296875 41.140625 47.34375 
Q 37.3125 48.390625 33.40625 48.390625 
Q 24.65625 48.390625 19.8125 42.84375 
Q 14.984375 37.3125 14.984375 27.296875 
Q 14.984375 17.28125 19.8125 11.734375 
Q 24.65625 6.203125 33.40625 6.203125 
Q 37.3125 6.203125 41.140625 7.25 
Q 44.96875 8.296875 48.78125 10.40625 
L 48.78125 2.09375 
Q 45.015625 0.34375 40.984375 -0.53125 
Q 36.96875 -1.421875 32.421875 -1.421875 
Q 20.0625 -1.421875 12.78125 6.34375 
Q 5.515625 14.109375 5.515625 27.296875 
Q 5.515625 40.671875 12.859375 48.328125 
Q 20.21875 56 33.015625 56 
Q 37.15625 56 41.109375 55.140625 
Q 45.0625 54.296875 48.78125 52.59375 
z
" id="DejaVuSans-99"/>
      <path d="M 9.421875 75.984375 
L 18.40625 75.984375 
L 18.40625 0 
L 9.421875 0 
z
" id="DejaVuSans-108"/>
      <path d="M 34.28125 27.484375 
Q 23.390625 27.484375 19.1875 25 
Q 14.984375 22.515625 14.984375 16.5 
Q 14.984375 11.71875 18.140625 8.90625 
Q 21.296875 6.109375 26.703125 6.109375 
Q 34.1875 6.109375 38.703125 11.40625 
Q 43.21875 16.703125 43.21875 25.484375 
L 43.21875 27.484375 
z
M 52.203125 31.203125 
L 52.203125 0 
L 43.21875 0 
L 43.21875 8.296875 
Q 40.140625 3.328125 35.546875 0.953125 
Q 30.953125 -1.421875 24.3125 -1.421875 
Q 15.921875 -1.421875 10.953125 3.296875 
Q 6 8.015625 6 15.921875 
Q 6 25.140625 12.171875 29.828125 
Q 18.359375 34.515625 30.609375 34.515625 
L 43.21875 34.515625 
L 43.21875 35.40625 
Q 43.21875 41.609375 39.140625 45 
Q 35.0625 48.390625 27.6875 48.390625 
Q 23 48.390625 18.546875 47.265625 
Q 14.109375 46.140625 10.015625 43.890625 
L 10.015625 52.203125 
Q 14.9375 54.109375 19.578125 55.046875 
Q 24.21875 56 28.609375 56 
Q 40.484375 56 46.34375 49.84375 
Q 52.203125 43.703125 52.203125 31.203125 
z
" id="DejaVuSans-97"/>
      <path d="M 44.28125 53.078125 
L 44.28125 44.578125 
Q 40.484375 46.53125 36.375 47.5 
Q 32.28125 48.484375 27.875 48.484375 
Q 21.1875 48.484375 17.84375 46.4375 
Q 14.5 44.390625 14.5 40.28125 
Q 14.5 37.15625 16.890625 35.375 
Q 19.28125 33.59375 26.515625 31.984375 
L 29.59375 31.296875 
Q 39.15625 29.25 43.1875 25.515625 
Q 47.21875 21.78125 47.21875 15.09375 
Q 47.21875 7.46875 41.1875 3.015625 
Q 35.15625 -1.421875 24.609375 -1.421875 
Q 20.21875 -1.421875 15.453125 -0.5625 
Q 10.6875 0.296875 5.421875 2 
L 5.421875 11.28125 
Q 10.40625 8.6875 15.234375 7.390625 
Q 20.0625 6.109375 24.8125 6.109375 
Q 31.15625 6.109375 34.5625 8.28125 
Q 37.984375 10.453125 37.984375 14.40625 
Q 37.984375 18.0625 35.515625 20.015625 
Q 33.0625 21.96875 24.703125 23.78125 
L 21.578125 24.515625 
Q 13.234375 26.265625 9.515625 29.90625 
Q 5.8125 33.546875 5.8125 39.890625 
Q 5.8125 47.609375 11.28125 51.796875 
Q 16.75 56 26.8125 56 
Q 31.78125 56 36.171875 55.265625 
Q 40.578125 54.546875 44.28125 53.078125 
z
" id="DejaVuSans-115"/>
     </defs>
     <g transform="translate(595.1625 23.798437)scale(0.1 -0.1)">
      <use xlink:href="#DejaVuSans-99"/>
      <use x="54.980469" xlink:href="#DejaVuSans-108"/>
      <use x="82.763672" xlink:href="#DejaVuSans-97"/>
      <use x="144.042969" xlink:href="#DejaVuSans-115"/>
      <use x="196.142578" xlink:href="#DejaVuSans-115"/>
     </g>
    </g>
    <g id="PathCollection_4">
     <path d="M 572.523438 40.851562 
C 573.849453 40.851562 575.121337 40.324731 576.058971 39.387096 
C 576.996606 38.449462 577.523438 37.177578 577.523438 35.851562 
C 577.523438 34.525547 576.996606 33.253663 576.058971 32.316029 
C 575.121337 31.378394 573.849453 30.851562 572.523438 30.851562 
C 571.197422 30.851562 569.925538 31.378394 568.987904 32.316029 
C 568.050269 33.253663 567.523438 34.525547 567.523438 35.851562 
C 567.523438 37.177578 568.050269 38.449462 568.987904 39.387096 
C 569.925538 40.324731 571.197422 40.851562 572.523438 40.851562 
z
" style="fill:#1f77b4;"/>
    </g>
    <g id="text_16">
     <!-- AUS isolate -->
     <defs>
      <path d="M 8.6875 72.90625 
L 18.609375 72.90625 
L 18.609375 28.609375 
Q 18.609375 16.890625 22.84375 11.734375 
Q 27.09375 6.59375 36.625 6.59375 
Q 46.09375 6.59375 50.34375 11.734375 
Q 54.59375 16.890625 54.59375 28.609375 
L 54.59375 72.90625 
L 64.5 72.90625 
L 64.5 27.390625 
Q 64.5 13.140625 57.4375 5.859375 
Q 50.390625 -1.421875 36.625 -1.421875 
Q 22.796875 -1.421875 15.734375 5.859375 
Q 8.6875 13.140625 8.6875 27.390625 
z
" id="DejaVuSans-85"/>
      <path d="M 53.515625 70.515625 
L 53.515625 60.890625 
Q 47.90625 63.578125 42.921875 64.890625 
Q 37.9375 66.21875 33.296875 66.21875 
Q 25.25 66.21875 20.875 63.09375 
Q 16.5 59.96875 16.5 54.203125 
Q 16.5 49.359375 19.40625 46.890625 
Q 22.3125 44.4375 30.421875 42.921875 
L 36.375 41.703125 
Q 47.40625 39.59375 52.65625 34.296875 
Q 57.90625 29 57.90625 20.125 
Q 57.90625 9.515625 50.796875 4.046875 
Q 43.703125 -1.421875 29.984375 -1.421875 
Q 24.8125 -1.421875 18.96875 -0.25 
Q 13.140625 0.921875 6.890625 3.21875 
L 6.890625 13.375 
Q 12.890625 10.015625 18.65625 8.296875 
Q 24.421875 6.59375 29.984375 6.59375 
Q 38.421875 6.59375 43.015625 9.90625 
Q 47.609375 13.234375 47.609375 19.390625 
Q 47.609375 24.75 44.3125 27.78125 
Q 41.015625 30.8125 33.5 32.328125 
L 27.484375 33.5 
Q 16.453125 35.6875 11.515625 40.375 
Q 6.59375 45.0625 6.59375 53.421875 
Q 6.59375 63.09375 13.40625 68.65625 
Q 20.21875 74.21875 32.171875 74.21875 
Q 37.3125 74.21875 42.625 73.28125 
Q 47.953125 72.359375 53.515625 70.515625 
z
" id="DejaVuSans-83"/>
      <path id="DejaVuSans-32"/>
      <path d="M 9.421875 54.6875 
L 18.40625 54.6875 
L 18.40625 0 
L 9.421875 0 
z
M 9.421875 75.984375 
L 18.40625 75.984375 
L 18.40625 64.59375 
L 9.421875 64.59375 
z
" id="DejaVuSans-105"/>
      <path d="M 30.609375 48.390625 
Q 23.390625 48.390625 19.1875 42.75 
Q 14.984375 37.109375 14.984375 27.296875 
Q 14.984375 17.484375 19.15625 11.84375 
Q 23.34375 6.203125 30.609375 6.203125 
Q 37.796875 6.203125 41.984375 11.859375 
Q 46.1875 17.53125 46.1875 27.296875 
Q 46.1875 37.015625 41.984375 42.703125 
Q 37.796875 48.390625 30.609375 48.390625 
z
M 30.609375 56 
Q 42.328125 56 49.015625 48.375 
Q 55.71875 40.765625 55.71875 27.296875 
Q 55.71875 13.875 49.015625 6.21875 
Q 42.328125 -1.421875 30.609375 -1.421875 
Q 18.84375 -1.421875 12.171875 6.21875 
Q 5.515625 13.875 5.515625 27.296875 
Q 5.515625 40.765625 12.171875 48.375 
Q 18.84375 56 30.609375 56 
z
" id="DejaVuSans-111"/>
      <path d="M 18.3125 70.21875 
L 18.3125 54.6875 
L 36.8125 54.6875 
L 36.8125 47.703125 
L 18.3125 47.703125 
L 18.3125 18.015625 
Q 18.3125 11.328125 20.140625 9.421875 
Q 21.96875 7.515625 27.59375 7.515625 
L 36.8125 7.515625 
L 36.8125 0 
L 27.59375 0 
Q 17.1875 0 13.234375 3.875 
Q 9.28125 7.765625 9.28125 18.015625 
L 9.28125 47.703125 
L 2.6875 47.703125 
L 2.6875 54.6875 
L 9.28125 54.6875 
L 9.28125 70.21875 
z
" id="DejaVuSans-116"/>
      <path d="M 56.203125 29.59375 
L 56.203125 25.203125 
L 14.890625 25.203125 
Q 15.484375 15.921875 20.484375 11.0625 
Q 25.484375 6.203125 34.421875 6.203125 
Q 39.59375 6.203125 44.453125 7.46875 
Q 49.3125 8.734375 54.109375 11.28125 
L 54.109375 2.78125 
Q 49.265625 0.734375 44.1875 -0.34375 
Q 39.109375 -1.421875 33.890625 -1.421875 
Q 20.796875 -1.421875 13.15625 6.1875 
Q 5.515625 13.8125 5.515625 26.8125 
Q 5.515625 40.234375 12.765625 48.109375 
Q 20.015625 56 32.328125 56 
Q 43.359375 56 49.78125 48.890625 
Q 56.203125 41.796875 56.203125 29.59375 
z
M 47.21875 32.234375 
Q 47.125 39.59375 43.09375 43.984375 
Q 39.0625 48.390625 32.421875 48.390625 
Q 24.90625 48.390625 20.390625 44.140625 
Q 15.875 39.890625 15.1875 32.171875 
z
" id="DejaVuSans-101"/>
     </defs>
     <g transform="translate(590.523438 38.476562)scale(0.1 -0.1)">
      <use xlink:href="#DejaVuSans-65"/>
      <use x="68.408203" xlink:href="#DejaVuSans-85"/>
      <use x="141.601562" xlink:href="#DejaVuSans-83"/>
      <use x="205.078125" xlink:href="#DejaVuSans-32"/>
      <use x="236.865234" xlink:href="#DejaVuSans-105"/>
      <use x="264.648438" xlink:href="#DejaVuSans-115"/>
      <use x="316.748047" xlink:href="#DejaVuSans-111"/>
      <use x="377.929688" xlink:href="#DejaVuSans-108"/>
      <use x="405.712891" xlink:href="#DejaVuSans-97"/>
      <use x="466.992188" xlink:href="#DejaVuSans-116"/>
      <use x="506.201172" xlink:href="#DejaVuSans-101"/>
     </g>
    </g>
    <g id="PathCollection_5">
     <path d="M 572.523438 54.065221 
C 573.461072 54.065221 574.36043 53.692695 575.023438 53.029687 
C 575.686445 52.36668 576.058971 51.467322 576.058971 50.529687 
C 576.058971 49.592053 575.686445 48.692695 575.023438 48.029687 
C 574.36043 47.36668 573.461072 46.994154 572.523438 46.994154 
C 571.585803 46.994154 570.686445 47.36668 570.023438 48.029687 
C 569.36043 48.692695 568.987904 49.592053 568.987904 50.529687 
C 568.987904 51.467322 569.36043 52.36668 570.023438 53.029687 
C 570.686445 53.692695 571.585803 54.065221 572.523438 54.065221 
z
" style="fill:#bcbd22;"/>
    </g>
    <g id="text_17">
     <!-- SARS-CoV-2 -->
     <defs>
      <path d="M 44.390625 34.1875 
Q 47.5625 33.109375 50.5625 29.59375 
Q 53.5625 26.078125 56.59375 19.921875 
L 66.609375 0 
L 56 0 
L 46.6875 18.703125 
Q 43.0625 26.03125 39.671875 28.421875 
Q 36.28125 30.8125 30.421875 30.8125 
L 19.671875 30.8125 
L 19.671875 0 
L 9.8125 0 
L 9.8125 72.90625 
L 32.078125 72.90625 
Q 44.578125 72.90625 50.734375 67.671875 
Q 56.890625 62.453125 56.890625 51.90625 
Q 56.890625 45.015625 53.6875 40.46875 
Q 50.484375 35.9375 44.390625 34.1875 
z
M 19.671875 64.796875 
L 19.671875 38.921875 
L 32.078125 38.921875 
Q 39.203125 38.921875 42.84375 42.21875 
Q 46.484375 45.515625 46.484375 51.90625 
Q 46.484375 58.296875 42.84375 61.546875 
Q 39.203125 64.796875 32.078125 64.796875 
z
" id="DejaVuSans-82"/>
      <path d="M 4.890625 31.390625 
L 31.203125 31.390625 
L 31.203125 23.390625 
L 4.890625 23.390625 
z
" id="DejaVuSans-45"/>
      <path d="M 28.609375 0 
L 0.78125 72.90625 
L 11.078125 72.90625 
L 34.1875 11.53125 
L 57.328125 72.90625 
L 67.578125 72.90625 
L 39.796875 0 
z
" id="DejaVuSans-86"/>
     </defs>
     <g transform="translate(590.523438 53.154687)scale(0.1 -0.1)">
      <use xlink:href="#DejaVuSans-83"/>
      <use x="65.351562" xlink:href="#DejaVuSans-65"/>
      <use x="133.759766" xlink:href="#DejaVuSans-82"/>
      <use x="203.242188" xlink:href="#DejaVuSans-83"/>
      <use x="266.71875" xlink:href="#DejaVuSans-45"/>
      <use x="302.802734" xlink:href="#DejaVuSans-67"/>
      <use x="372.626953" xlink:href="#DejaVuSans-111"/>
      <use x="433.808594" xlink:href="#DejaVuSans-86"/>
      <use x="496.341797" xlink:href="#DejaVuSans-45"/>
      <use x="532.425781" xlink:href="#DejaVuSans-50"/>
     </g>
    </g>
    <g id="PathCollection_6">
     <path d="M 572.523438 70.207812 
C 573.849453 70.207812 575.121337 69.680981 576.058971 68.743346 
C 576.996606 67.805712 577.523438 66.533828 577.523438 65.207812 
C 577.523438 63.881797 576.996606 62.609913 576.058971 61.672279 
C 575.121337 60.734644 573.849453 60.207812 572.523438 60.207812 
C 571.197422 60.207812 569.925538 60.734644 568.987904 61.672279 
C 568.050269 62.609913 567.523438 63.881797 567.523438 65.207812 
C 567.523438 66.533828 568.050269 67.805712 568.987904 68.743346 
C 569.925538 69.680981 571.197422 70.207812 572.523438 70.207812 
z
"/>
    </g>
    <g id="text_18">
     <!-- Wuhan-Hu-1 -->
     <defs>
      <path d="M 3.328125 72.90625 
L 13.28125 72.90625 
L 28.609375 11.28125 
L 43.890625 72.90625 
L 54.984375 72.90625 
L 70.3125 11.28125 
L 85.59375 72.90625 
L 95.609375 72.90625 
L 77.296875 0 
L 64.890625 0 
L 49.515625 63.28125 
L 33.984375 0 
L 21.578125 0 
z
" id="DejaVuSans-87"/>
      <path d="M 8.5 21.578125 
L 8.5 54.6875 
L 17.484375 54.6875 
L 17.484375 21.921875 
Q 17.484375 14.15625 20.5 10.265625 
Q 23.53125 6.390625 29.59375 6.390625 
Q 36.859375 6.390625 41.078125 11.03125 
Q 45.3125 15.671875 45.3125 23.6875 
L 45.3125 54.6875 
L 54.296875 54.6875 
L 54.296875 0 
L 45.3125 0 
L 45.3125 8.40625 
Q 42.046875 3.421875 37.71875 1 
Q 33.40625 -1.421875 27.6875 -1.421875 
Q 18.265625 -1.421875 13.375 4.4375 
Q 8.5 10.296875 8.5 21.578125 
z
M 31.109375 56 
z
" id="DejaVuSans-117"/>
      <path d="M 54.890625 33.015625 
L 54.890625 0 
L 45.90625 0 
L 45.90625 32.71875 
Q 45.90625 40.484375 42.875 44.328125 
Q 39.84375 48.1875 33.796875 48.1875 
Q 26.515625 48.1875 22.3125 43.546875 
Q 18.109375 38.921875 18.109375 30.90625 
L 18.109375 0 
L 9.078125 0 
L 9.078125 75.984375 
L 18.109375 75.984375 
L 18.109375 46.1875 
Q 21.34375 51.125 25.703125 53.5625 
Q 30.078125 56 35.796875 56 
Q 45.21875 56 50.046875 50.171875 
Q 54.890625 44.34375 54.890625 33.015625 
z
" id="DejaVuSans-104"/>
      <path d="M 54.890625 33.015625 
L 54.890625 0 
L 45.90625 0 
L 45.90625 32.71875 
Q 45.90625 40.484375 42.875 44.328125 
Q 39.84375 48.1875 33.796875 48.1875 
Q 26.515625 48.1875 22.3125 43.546875 
Q 18.109375 38.921875 18.109375 30.90625 
L 18.109375 0 
L 9.078125 0 
L 9.078125 54.6875 
L 18.109375 54.6875 
L 18.109375 46.1875 
Q 21.34375 51.125 25.703125 53.5625 
Q 30.078125 56 35.796875 56 
Q 45.21875 56 50.046875 50.171875 
Q 54.890625 44.34375 54.890625 33.015625 
z
" id="DejaVuSans-110"/>
      <path d="M 9.8125 72.90625 
L 19.671875 72.90625 
L 19.671875 43.015625 
L 55.515625 43.015625 
L 55.515625 72.90625 
L 65.375 72.90625 
L 65.375 0 
L 55.515625 0 
L 55.515625 34.71875 
L 19.671875 34.71875 
L 19.671875 0 
L 9.8125 0 
z
" id="DejaVuSans-72"/>
     </defs>
     <g transform="translate(590.523438 67.832812)scale(0.1 -0.1)">
      <use xlink:href="#DejaVuSans-87"/>
      <use x="95.251953" xlink:href="#DejaVuSans-117"/>
      <use x="158.630859" xlink:href="#DejaVuSans-104"/>
      <use x="222.009766" xlink:href="#DejaVuSans-97"/>
      <use x="283.289062" xlink:href="#DejaVuSans-110"/>
      <use x="346.667969" xlink:href="#DejaVuSans-45"/>
      <use x="382.751953" xlink:href="#DejaVuSans-72"/>
      <use x="457.947266" xlink:href="#DejaVuSans-117"/>
      <use x="521.326172" xlink:href="#DejaVuSans-45"/>
      <use x="557.410156" xlink:href="#DejaVuSans-49"/>
     </g>
    </g>
   </g>
  </g>
 </g>
 <defs>
  <clipPath id="p617ed08029">
   <rect height="604.8" width="604.8" x="56.825" y="7.2"/>
  </clipPath>
 </defs>
</svg>
